# xmcd CD database file
#
# Track frame offsets:
#	150
#	14754
#	31927
#	52870
#	73559
#	86778
#	88109
#	96931
#	116371
#	145386
#	159663
#
# Disc length: 2361 seconds
#
# Revision: 0
# Processed by: cddbd v1.5.1PL0 Copyright (c) Steve Scherf et al.
# Submitted via: CdAid (MTCDDB.DLL V2003.12.21)
#
DISCID=9009370b
DTITLE=Dan Smith - Not Afraid
DYEAR=1996
DGENRE=Gospel
TTITLE0=All The Glory
TTITLE1=New Song
TTITLE2=I Will Not Be Ashamed
TTITLE3=You Are My Fortress
TTITLE4=O Glorious Love
TTITLE5=Dan and The Duck
TTITLE6=The Duck Song
TTITLE7=I Rejoice In Your Love
TTITLE8=Carpe Diem "Sieze The Day"
TTITLE9=King Of Glory
TTITLE10=Have You Not Heard?
EXTD=ID3G:  38 YEAR: 1996
EXTT0=
EXTT1=
EXTT2=
EXTT3=
EXTT4=
EXTT5=
EXTT6=
EXTT7=
EXTT8=
EXTT9=
EXTT10=
PLAYORDER=
